IKResults
version=1
nRows=8
nColumns=40
inDegrees=yes

Units are S.I. units (second, meters, Newtons, ...)
Angles are in degrees.

endheader
time	pelvis_tilt	pelvis_list	pelvis_rotation	pelvis_tx	pelvis_ty	pelvis_tz	hip_flexion_r	hip_adduction_r	hip_rotation_r	knee_angle_r	knee_angle_r_beta	ankle_angle_r	subtalar_angle_r	mtp_angle_r	hip_flexion_l	hip_adduction_l	hip_rotation_l	knee_angle_l	knee_angle_l_beta	ankle_angle_l	subtalar_angle_l	mtp_angle_l	lumbar_extension	lumbar_bending	lumbar_rotation	arm_flex_r	arm_add_r	arm_rot_r	elbow_flex_r	pro_sup_r	wrist_flex_r	wrist_dev_r	arm_flex_l	arm_add_l	arm_rot_l	elbow_flex_l	pro_sup_l	wrist_flex_l	wrist_dev_l
      0.35000000	     12.60813599	     -3.97350696	      8.27390930	     -0.62524773	      0.91050846	      1.41603710	     15.98577411	      1.94682538	    -20.85275950	    -20.88180075	     -0.36445618	      4.07313315	      1.28665797	     -9.84890359	    -28.03047735	      5.18503767	      3.12115164	    -20.75109002	     -0.36217484	     17.90234008	      9.08856150	     -7.32928863	    -23.94509468	      8.44301865	     -8.46362569	     -8.46387295	    -11.80907804	     -9.66408696	     19.77883623	     89.95437384	      0.00000000	      0.00000000	     12.28578095	     11.62943749	      5.37799237	     61.38676417	     89.95437384	      0.00000000	      0.00000000
      0.36000000	     12.42913861	     -4.16806905	      8.63412836	     -0.61142788	      0.90982894	      1.41609077	     16.11459571	      2.36126547	    -20.43199664	    -22.02677547	     -0.38443976	      1.74959070	     -3.03442770	     -8.71971089	    -28.08714690	      5.44649134	      1.91588822	    -21.89903298	     -0.38221023	     17.08625363	     11.06805840	     -6.89815106	    -23.56583784	      8.84875891	     -8.65040381	     -8.30157608	    -11.84278331	    -10.40087518	     19.04615953	     89.95437384	      0.00000000	      0.00000000	     11.85604346	     11.55745978	      5.14221994	     61.42903376	     89.95437384	      0.00000000	      0.00000000
      0.37000000	     12.25699534	     -4.45449112	      8.57183445	     -0.59747651	      0.90955787	      1.41642115	     16.39357104	      2.65372968	    -19.78132867	    -23.41697972	     -0.40870340	      0.73703906	     -3.18153162	     -8.38524040	    -28.19347697	      5.71405410	      1.56524997	    -22.98487533	     -0.40116175	     15.90982285	     10.93008885	     -6.64178984	    -23.26681292	      9.24785258	     -8.36618095	     -8.45883721	    -12.12583680	    -10.32173475	     18.96581877	     89.95437384	      0.00000000	      0.00000000	     11.48295895	     11.31228522	      5.02916436	     61.27337020	     89.95437384	      0.00000000	      0.00000000
      0.38000000	     12.00326708	     -5.12208156	      8.45617732	     -0.58329352	      0.90988781	      1.41734199	     16.52756649	      3.65524474	    -18.63422268	    -24.01526177	     -0.41914539	     -1.11849440	     -7.06462758	     -7.69442291	    -28.13554117	      6.21922065	      1.11809013	    -24.10615746	     -0.42073182	     14.47472625	     13.03504203	     -5.94735359	    -22.81529019	      9.96429975	     -7.97167301	     -8.20241318	    -12.33630055	    -10.41570314	     18.18388495	     89.95437384	      0.00000000	      0.00000000	     11.02580342	     10.98377869	      5.05191251	     60.84403424	     89.95437384	      0.00000000	      0.00000000
      0.39000000	     11.89046140	     -5.61943458	      8.14837509	     -0.56878262	      0.91075399	      1.41817425	     16.57343372	      4.16039672	    -18.37142081	    -25.34745398	     -0.44239653	     -1.45736571	     -7.43713575	     -7.45993536	    -28.12918446	      6.59231034	      1.44149747	    -25.41458791	     -0.44356824	     12.74660335	     13.50750657	     -5.57130059	    -22.56958207	     10.49305645	     -7.38546291	     -8.10275640	    -12.63400475	    -10.17865316	     17.72269960	     89.95437384	      0.00000000	      0.00000000	     10.52850892	     10.63048165	      5.04085863	     60.33580395	     89.95437384	      0.00000000	      0.00000000
      0.40000000	     11.88166129	     -6.10433339	      7.85719488	     -0.55391274	      0.91226524	      1.41899848	     16.18955760	      4.74632939	    -18.10915565	    -26.28995210	     -0.45884622	     -1.90103322	     -7.85774861	     -7.17514026	    -28.06711582	      6.93331909	      1.73743868	    -26.93942908	     -0.47018174	     10.54068406	     14.42161647	     -5.09783205	    -22.40060867	     11.02263083	     -6.88287174	     -7.90117655	    -12.92330918	     -9.82342146	     17.18504412	     89.95437384	      0.00000000	      0.00000000	      9.92343109	     10.25937123	      5.17906834	     59.69044124	     89.95437384	      0.00000000	      0.00000000
      0.41000000	     11.94902903	     -6.66012466	      7.54965648	     -0.53875080	      0.91430639	      1.42001197	     15.38816496	      5.53962169	    -17.77212999	    -26.59751097	     -0.46421414	     -2.04842038	     -8.29851088	     -6.82950684	    -27.96566863	      7.29735057	      1.99790082	    -28.61937620	     -0.49950234	      7.84830251	     15.65615927	     -4.44825711	    -22.26420929	     11.60644035	     -6.36387087	     -7.71135923	    -13.22083981	     -9.31774353	     16.74941821	     89.95437384	      0.00000000	      0.00000000	      9.23325801	      9.85378410	      5.41869626	     58.93563974	     89.95437384	      0.00000000	      0.00000000
      0.42000000	     12.18934000	     -7.24321438	      7.31053314	     -0.52361458	      0.91684480	      1.42132284	     14.24617609	      6.51012416	    -17.36816548	    -26.57748965	     -0.46386470	     -1.87741169	     -8.67529446	     -6.36187286	    -27.80448695	      7.79282640	      2.42105775	    -30.55236376	     -0.53323934	      4.90882315	     16.62248524	     -3.43752425	    -22.32903295	     12.20567262	     -5.85581132	     -7.55011714	    -13.48667015	     -8.63575912	     16.53184993	     89.95437384	      0.00000000	      0.00000000	      8.57218993	      9.50170512	      5.67967953	     58.03841093	     89.95437384	      0.00000000	      0.00000000
